<svg id="Layer_1" data-name="Layer 1" xmlns="http://www.w3.org/2000/svg" viewBox="0 0 124.12 87.54"><defs><style>.cls-1{fill:#241f0c;}.cls-2,.cls-3{fill:#ae9a64;}.cls-2{fill-rule:evenodd;}</style></defs><path class="cls-1" d="M57.59,32.8v-3h.47v2.6h1.42v.4Z"/><path class="cls-1" d="M61,32.8v-3h1.86v.39H61.43v.87h1.14v.39H61.43v.95h1.42v.4Z"/><path class="cls-1" d="M66.2,30.39a1.26,1.26,0,0,0-.37-.18,1.33,1.33,0,0,0-.42-.06c-.39,0-.62.14-.62.37a.27.27,0,0,0,0,.16c.09.13.19.19.77.47s.75.48.75.85c0,.54-.42.86-1.09.86a2,2,0,0,1-.62-.1,2.49,2.49,0,0,1-.43-.22l.22-.41a1.7,1.7,0,0,0,.39.24,1.38,1.38,0,0,0,.49.1c.35,0,.56-.15.56-.4a.47.47,0,0,0-.34-.45L65,31.36c-.46-.22-.67-.48-.67-.79,0-.5.43-.82,1.09-.82a2,2,0,0,1,.56.07,1.66,1.66,0,0,1,.4.18Z"/><path class="cls-1" d="M39.43,41.32a4.16,4.16,0,0,0-2.56-.79,3.79,3.79,0,0,0-3.78,4.08c0,2.62,1.59,4.33,4,4.33a5.84,5.84,0,0,0,2.39-.48l.37,1a6.61,6.61,0,0,1-1.41.51,6,6,0,0,1-1.43.17,5.4,5.4,0,0,1-.13-10.79,5.85,5.85,0,0,1,2,.34,4.74,4.74,0,0,1,1.19.65Z"/><path class="cls-1" d="M52.08,49.94,51,46.86H46.8l-1.07,3.08H44.34l3.88-10.7h1.39l3.86,10.7Zm-3.17-9-1.7,4.76H50.6Z"/><path class="cls-1" d="M72.06,49.94V39.54H77.9v1.08H73.35v3.47h3.77v1.09H73.35v3.67H78v1.09Z"/><path class="cls-1" d="M89.58,41.3a4.45,4.45,0,0,0-2.53-.75c-1.18,0-2,.58-2,1.46s.46,1.17,2.57,2.29a9,9,0,0,1,1.64,1.05,2.51,2.51,0,0,1,.8,1.89c0,1.78-1.32,2.9-3.42,2.9a5,5,0,0,1-1.92-.35A6.18,6.18,0,0,1,83.4,49l.66-1a6.47,6.47,0,0,0,1.2.68,4.28,4.28,0,0,0,1.49.26c1.24,0,2-.58,2-1.57a1.48,1.48,0,0,0-.16-.74,2.26,2.26,0,0,0-.88-.85L86,44.85c-1.56-.84-2.22-1.66-2.22-2.73,0-1.65,1.37-2.76,3.43-2.76a5.57,5.57,0,0,1,1.75.26,5.45,5.45,0,0,1,1.27.61Z"/><path class="cls-1" d="M26.92,72.78a5.4,5.4,0,1,1,5.21-5.41A5.15,5.15,0,0,1,26.92,72.78Zm0-9.66a4.29,4.29,0,0,0,0,8.52,4.29,4.29,0,0,0,0-8.52Z"/><path class="cls-1" d="M59,71.06a4.52,4.52,0,0,1-3.85,1.51H51.71V62.17h3.47a5,5,0,0,1,5.23,5.16A5.72,5.72,0,0,1,59,71.06Zm-4-7.8H53v8.23h2a3.49,3.49,0,0,0,2.81-.95,5,5,0,0,0,1.28-3.23A4,4,0,0,0,55,63.26Z"/><path class="cls-1" d="M66.7,72.57V62.17h5.84v1.09H68v3.47h3.76v1.08H68v3.68h4.69v1.08Z"/><path class="cls-1" d="M65.12,39.54l-3,8.11a1.48,1.48,0,0,0-.09.51,2.81,2.81,0,0,0-.11-.51l-3.08-8.11H55.44l2.33.72,3.82,9.94h.79l4-10.66Z"/><path class="cls-1" d="M85.43,72.57,84.36,69.5H80.15l-1.07,3.07H77.69l3.88-10.7H83l3.87,10.7Zm-3.17-9-1.7,4.76H84Z"/><path class="cls-1" d="M99.42,71.91a4.38,4.38,0,0,1-2.85,1,4.44,4.44,0,0,1-2.87-1A3.3,3.3,0,0,1,92.49,69V62.17h1.29v6.45c0,1.29.09,1.65.6,2.2a3.08,3.08,0,0,0,4.35,0c.5-.55.6-.91.6-2.2V62.17h1.29V69A3.26,3.26,0,0,1,99.42,71.91Z"/><path class="cls-1" d="M113.55,72.57l-2.87-4.24-2.9,4.24h-1.5l3.65-5.31-3.47-5.09h1.48l2.76,4,2.73-4h1.46l-3.48,5.11L115,72.57Z"/><path class="cls-1" d="M61.68,57.25a1.6,1.6,0,0,1-1.24.41h-1.1v-3h1.1a1.62,1.62,0,0,1,1.25.42,1.72,1.72,0,0,1,.42,1.08A1.62,1.62,0,0,1,61.68,57.25Zm-.47-2a1.11,1.11,0,0,0-.81-.21h-.59v2.21h.56a1.19,1.19,0,0,0,.84-.22,1.22,1.22,0,0,0,.4-.89A1.15,1.15,0,0,0,61.21,55.27Z"/><path class="cls-1" d="M63.79,57.66v-3h1.86v.4H64.27v.86h1.14v.4H64.27v1h1.42v.39Z"/><path class="cls-1" d="M42.37,67.92A2.81,2.81,0,0,0,44,67.14,3,3,0,0,0,44.86,65,2.86,2.86,0,0,0,44,63a3,3,0,0,0-2.46-.78H36.13l2.28.71v9.69h1.3V68.11H41.1L44,72.57h1.49ZM39.71,67V63.26h1.68c.93,0,1.2.05,1.52.3A1.73,1.73,0,0,1,43.47,65a1.84,1.84,0,0,1-2.08,2Z"/><path class="cls-1" d="M14,67.12a2.47,2.47,0,0,0,1.78-2.39A2.63,2.63,0,0,0,15,62.82a2.74,2.74,0,0,0-2.08-.65H7.76l1.76.55v9.85h3.85a2.65,2.65,0,0,0,2.81-2.77A2.52,2.52,0,0,0,14,67.12Zm-1.42-3.86c.81,0,1.14.09,1.41.38a1.71,1.71,0,0,1,.42,1.2,1.94,1.94,0,0,1-.5,1.34,1.73,1.73,0,0,1-1.42.45H10.81V63.26Zm1.67,7.83c-.36.3-.72.4-1.67.4H10.81V67.81h1.78c1.42,0,2.23.68,2.23,1.9A1.88,1.88,0,0,1,14.26,71.09Z"/><path class="cls-2" d="M57.6,11.61l-.09.19h0c-.22.55-.75,2.13-.13,3.15v0a2.1,2.1,0,0,0,2.58.72,1.81,1.81,0,0,0,.77-.54,3.16,3.16,0,0,0,.41-1A3.23,3.23,0,0,0,61.05,13a3.71,3.71,0,0,0-1.71-1.85h0l-.15-.08c1.62-.83,2.33-4.71,2.33-4.71s.71,3.88,2.33,4.71l-.14.08h0A3.8,3.8,0,0,0,62,12.9a2.9,2.9,0,0,0-.1,1.34,3.15,3.15,0,0,0,.34.84,1.85,1.85,0,0,0,.82.59A2.1,2.1,0,0,0,65.66,15h0c.61-1,.08-2.59-.14-3.14h0c0-.06-.05-.12-.08-.19a6.19,6.19,0,0,0,4.35,0l-4.54,5.57h-7.4l-4.59-5.57A6.19,6.19,0,0,0,57.6,11.61Z"/><rect class="cls-3" x="9.52" y="34.67" width="105.72" height="0.78"/><rect class="cls-3" x="9.52" y="55.68" width="46.38" height="0.79"/><rect class="cls-3" x="68.45" y="55.68" width="46.79" height="0.79"/><rect class="cls-3" x="9.52" y="78.3" width="105.72" height="0.79"/></svg>